<mxfile host="65bd71144e" modified="2020-12-16T17:41:30.781Z" agent="5.0 (Macintosh; Intel Mac OS X 10_15_7) AppleWebKit/537.36 (KHTML, like Gecko) Code/1.52.0 Chrome/83.0.4103.122 Electron/9.3.5 Safari/537.36" etag="w3gfkYPRN75B5USOkDtx" version="13.10.0" type="embed">
    <diagram id="pgoj0wsKh1fZ6Jza8Qj-" name="Page-1">
        <mxGraphModel dx="2231" dy="980" grid="1" gridSize="10" guides="1" tooltips="1" connect="1" arrows="1" fold="1" page="1" pageScale="1" pageWidth="850" pageHeight="1100" math="0" shadow="0">
            <root>
                <mxCell id="0"/>
                <mxCell id="1" parent="0"/>
                <mxCell id="2" value="" style="shape=table;html=1;whiteSpace=wrap;startSize=0;container=1;collapsible=0;childLayout=tableLayout;" parent="1" vertex="1">
                    <mxGeometry x="-100" y="300" width="250" height="120" as="geometry"/>
                </mxCell>
                <mxCell id="3" value="" style="shape=partialRectangle;html=1;whiteSpace=wrap;collapsible=0;dropTarget=0;pointerEvents=0;fillColor=none;top=0;left=0;bottom=0;right=0;points=[[0,0.5],[1,0.5]];portConstraint=eastwest;" parent="2" vertex="1">
                    <mxGeometry width="250" height="40" as="geometry"/>
                </mxCell>
                <mxCell id="4" value="User (HealthCare Worker)" style="shape=partialRectangle;html=1;whiteSpace=wrap;connectable=0;overflow=hidden;fillColor=none;top=0;left=0;bottom=0;right=0;" parent="3" vertex="1">
                    <mxGeometry width="250" height="40" as="geometry"/>
                </mxCell>
                <mxCell id="5" value="" style="shape=partialRectangle;html=1;whiteSpace=wrap;collapsible=0;dropTarget=0;pointerEvents=0;fillColor=none;top=0;left=0;bottom=0;right=0;points=[[0,0.5],[1,0.5]];portConstraint=eastwest;" parent="2" vertex="1">
                    <mxGeometry y="40" width="250" height="40" as="geometry"/>
                </mxCell>
                <mxCell id="6" value="username" style="shape=partialRectangle;html=1;whiteSpace=wrap;connectable=0;overflow=hidden;fillColor=none;top=0;left=0;bottom=0;right=0;" parent="5" vertex="1">
                    <mxGeometry width="250" height="40" as="geometry"/>
                </mxCell>
                <mxCell id="7" value="" style="shape=partialRectangle;html=1;whiteSpace=wrap;collapsible=0;dropTarget=0;pointerEvents=0;fillColor=none;top=0;left=0;bottom=0;right=0;points=[[0,0.5],[1,0.5]];portConstraint=eastwest;" parent="2" vertex="1">
                    <mxGeometry y="80" width="250" height="40" as="geometry"/>
                </mxCell>
                <mxCell id="8" value="password_digest" style="shape=partialRectangle;html=1;whiteSpace=wrap;connectable=0;overflow=hidden;fillColor=none;top=0;left=0;bottom=0;right=0;" parent="7" vertex="1">
                    <mxGeometry width="250" height="40" as="geometry"/>
                </mxCell>
                <mxCell id="9" value="" style="shape=table;html=1;whiteSpace=wrap;startSize=0;container=1;collapsible=0;childLayout=tableLayout;" parent="1" vertex="1">
                    <mxGeometry x="250" y="30" width="260" height="280" as="geometry"/>
                </mxCell>
                <mxCell id="10" value="" style="shape=partialRectangle;html=1;whiteSpace=wrap;collapsible=0;dropTarget=0;pointerEvents=0;fillColor=none;top=0;left=0;bottom=0;right=0;points=[[0,0.5],[1,0.5]];portConstraint=eastwest;" parent="9" vertex="1">
                    <mxGeometry width="260" height="47" as="geometry"/>
                </mxCell>
                <mxCell id="11" value="Patient" style="shape=partialRectangle;html=1;whiteSpace=wrap;connectable=0;overflow=hidden;fillColor=none;top=0;left=0;bottom=0;right=0;" parent="10" vertex="1">
                    <mxGeometry width="260" height="47" as="geometry"/>
                </mxCell>
                <mxCell id="12" value="" style="shape=partialRectangle;html=1;whiteSpace=wrap;collapsible=0;dropTarget=0;pointerEvents=0;fillColor=none;top=0;left=0;bottom=0;right=0;points=[[0,0.5],[1,0.5]];portConstraint=eastwest;" parent="9" vertex="1">
                    <mxGeometry y="47" width="260" height="46" as="geometry"/>
                </mxCell>
                <mxCell id="13" value="name" style="shape=partialRectangle;html=1;whiteSpace=wrap;connectable=0;overflow=hidden;fillColor=none;top=0;left=0;bottom=0;right=0;" parent="12" vertex="1">
                    <mxGeometry width="260" height="46" as="geometry"/>
                </mxCell>
                <mxCell id="14" value="" style="shape=partialRectangle;html=1;whiteSpace=wrap;collapsible=0;dropTarget=0;pointerEvents=0;fillColor=none;top=0;left=0;bottom=0;right=0;points=[[0,0.5],[1,0.5]];portConstraint=eastwest;" parent="9" vertex="1">
                    <mxGeometry y="93" width="260" height="47" as="geometry"/>
                </mxCell>
                <mxCell id="15" value="birthdate" style="shape=partialRectangle;html=1;whiteSpace=wrap;connectable=0;overflow=hidden;fillColor=none;top=0;left=0;bottom=0;right=0;" parent="14" vertex="1">
                    <mxGeometry width="260" height="47" as="geometry"/>
                </mxCell>
                <mxCell id="16" value="" style="shape=partialRectangle;html=1;whiteSpace=wrap;collapsible=0;dropTarget=0;pointerEvents=0;fillColor=none;top=0;left=0;bottom=0;right=0;points=[[0,0.5],[1,0.5]];portConstraint=eastwest;" parent="9" vertex="1">
                    <mxGeometry y="140" width="260" height="47" as="geometry"/>
                </mxCell>
                <mxCell id="17" value="age" style="shape=partialRectangle;html=1;whiteSpace=wrap;connectable=0;overflow=hidden;fillColor=none;top=0;left=0;bottom=0;right=0;" parent="16" vertex="1">
                    <mxGeometry width="260" height="47" as="geometry"/>
                </mxCell>
                <mxCell id="18" value="" style="shape=partialRectangle;html=1;whiteSpace=wrap;collapsible=0;dropTarget=0;pointerEvents=0;fillColor=none;top=0;left=0;bottom=0;right=0;points=[[0,0.5],[1,0.5]];portConstraint=eastwest;" parent="9" vertex="1">
                    <mxGeometry y="187" width="260" height="46" as="geometry"/>
                </mxCell>
                <mxCell id="19" value="allergies" style="shape=partialRectangle;html=1;whiteSpace=wrap;connectable=0;overflow=hidden;fillColor=none;top=0;left=0;bottom=0;right=0;" parent="18" vertex="1">
                    <mxGeometry width="260" height="46" as="geometry"/>
                </mxCell>
                <mxCell id="36" value="" style="shape=partialRectangle;html=1;whiteSpace=wrap;collapsible=0;dropTarget=0;pointerEvents=0;fillColor=none;top=0;left=0;bottom=0;right=0;points=[[0,0.5],[1,0.5]];portConstraint=eastwest;" parent="9" vertex="1">
                    <mxGeometry y="233" width="260" height="47" as="geometry"/>
                </mxCell>
                <mxCell id="37" value="user_id" style="shape=partialRectangle;html=1;whiteSpace=wrap;connectable=0;overflow=hidden;fillColor=none;top=0;left=0;bottom=0;right=0;" parent="36" vertex="1">
                    <mxGeometry width="260" height="47" as="geometry"/>
                </mxCell>
                <mxCell id="46" value="" style="shape=table;html=1;whiteSpace=wrap;startSize=0;container=1;collapsible=0;childLayout=tableLayout;" parent="1" vertex="1">
                    <mxGeometry x="590" y="240" width="220" height="200" as="geometry"/>
                </mxCell>
                <mxCell id="47" value="" style="shape=partialRectangle;html=1;whiteSpace=wrap;collapsible=0;dropTarget=0;pointerEvents=0;fillColor=none;top=0;left=0;bottom=0;right=0;points=[[0,0.5],[1,0.5]];portConstraint=eastwest;" parent="46" vertex="1">
                    <mxGeometry width="220" height="40" as="geometry"/>
                </mxCell>
                <mxCell id="48" value="Prescription" style="shape=partialRectangle;html=1;whiteSpace=wrap;connectable=0;overflow=hidden;fillColor=none;top=0;left=0;bottom=0;right=0;" parent="47" vertex="1">
                    <mxGeometry width="220" height="40" as="geometry"/>
                </mxCell>
                <mxCell id="49" value="" style="shape=partialRectangle;html=1;whiteSpace=wrap;collapsible=0;dropTarget=0;pointerEvents=0;fillColor=none;top=0;left=0;bottom=0;right=0;points=[[0,0.5],[1,0.5]];portConstraint=eastwest;" parent="46" vertex="1">
                    <mxGeometry y="40" width="220" height="40" as="geometry"/>
                </mxCell>
                <mxCell id="50" value="dosage" style="shape=partialRectangle;html=1;whiteSpace=wrap;connectable=0;overflow=hidden;fillColor=none;top=0;left=0;bottom=0;right=0;" parent="49" vertex="1">
                    <mxGeometry width="220" height="40" as="geometry"/>
                </mxCell>
                <mxCell id="51" value="" style="shape=partialRectangle;html=1;whiteSpace=wrap;collapsible=0;dropTarget=0;pointerEvents=0;fillColor=none;top=0;left=0;bottom=0;right=0;points=[[0,0.5],[1,0.5]];portConstraint=eastwest;" parent="46" vertex="1">
                    <mxGeometry y="80" width="220" height="40" as="geometry"/>
                </mxCell>
                <mxCell id="52" value="frequency" style="shape=partialRectangle;html=1;whiteSpace=wrap;connectable=0;overflow=hidden;fillColor=none;top=0;left=0;bottom=0;right=0;" parent="51" vertex="1">
                    <mxGeometry width="220" height="40" as="geometry"/>
                </mxCell>
                <mxCell id="53" value="" style="shape=partialRectangle;html=1;whiteSpace=wrap;collapsible=0;dropTarget=0;pointerEvents=0;fillColor=none;top=0;left=0;bottom=0;right=0;points=[[0,0.5],[1,0.5]];portConstraint=eastwest;" parent="46" vertex="1">
                    <mxGeometry y="120" width="220" height="40" as="geometry"/>
                </mxCell>
                <mxCell id="54" value="patient_id" style="shape=partialRectangle;html=1;whiteSpace=wrap;connectable=0;overflow=hidden;fillColor=none;top=0;left=0;bottom=0;right=0;" parent="53" vertex="1">
                    <mxGeometry width="220" height="40" as="geometry"/>
                </mxCell>
                <mxCell id="55" value="" style="shape=partialRectangle;html=1;whiteSpace=wrap;collapsible=0;dropTarget=0;pointerEvents=0;fillColor=none;top=0;left=0;bottom=0;right=0;points=[[0,0.5],[1,0.5]];portConstraint=eastwest;" parent="46" vertex="1">
                    <mxGeometry y="160" width="220" height="40" as="geometry"/>
                </mxCell>
                <mxCell id="56" value="medication_id" style="shape=partialRectangle;html=1;whiteSpace=wrap;connectable=0;overflow=hidden;fillColor=none;top=0;left=0;bottom=0;right=0;" parent="55" vertex="1">
                    <mxGeometry width="220" height="40" as="geometry"/>
                </mxCell>
                <mxCell id="58" value="" style="shape=table;html=1;whiteSpace=wrap;startSize=0;container=1;collapsible=0;childLayout=tableLayout;" parent="1" vertex="1">
                    <mxGeometry x="270" y="440" width="210" height="120" as="geometry"/>
                </mxCell>
                <mxCell id="59" value="" style="shape=partialRectangle;html=1;whiteSpace=wrap;collapsible=0;dropTarget=0;pointerEvents=0;fillColor=none;top=0;left=0;bottom=0;right=0;points=[[0,0.5],[1,0.5]];portConstraint=eastwest;" parent="58" vertex="1">
                    <mxGeometry width="210" height="40" as="geometry"/>
                </mxCell>
                <mxCell id="60" value="Medication" style="shape=partialRectangle;html=1;whiteSpace=wrap;connectable=0;overflow=hidden;fillColor=none;top=0;left=0;bottom=0;right=0;" parent="59" vertex="1">
                    <mxGeometry width="210" height="40" as="geometry"/>
                </mxCell>
                <mxCell id="64" value="" style="shape=partialRectangle;html=1;whiteSpace=wrap;collapsible=0;dropTarget=0;pointerEvents=0;fillColor=none;top=0;left=0;bottom=0;right=0;points=[[0,0.5],[1,0.5]];portConstraint=eastwest;" parent="58" vertex="1">
                    <mxGeometry y="40" width="210" height="40" as="geometry"/>
                </mxCell>
                <mxCell id="65" value="name" style="shape=partialRectangle;html=1;whiteSpace=wrap;connectable=0;overflow=hidden;fillColor=none;top=0;left=0;bottom=0;right=0;" parent="64" vertex="1">
                    <mxGeometry width="210" height="40" as="geometry"/>
                </mxCell>
                <mxCell id="75" value="" style="shape=partialRectangle;html=1;whiteSpace=wrap;collapsible=0;dropTarget=0;pointerEvents=0;fillColor=none;top=0;left=0;bottom=0;right=0;points=[[0,0.5],[1,0.5]];portConstraint=eastwest;" parent="58" vertex="1">
                    <mxGeometry y="80" width="210" height="40" as="geometry"/>
                </mxCell>
                <mxCell id="76" value="company" style="shape=partialRectangle;html=1;whiteSpace=wrap;connectable=0;overflow=hidden;fillColor=none;top=0;left=0;bottom=0;right=0;" parent="75" vertex="1">
                    <mxGeometry width="210" height="40" as="geometry"/>
                </mxCell>
                <mxCell id="74" value="" style="edgeStyle=entityRelationEdgeStyle;fontSize=12;html=1;endArrow=ERmany;strokeColor=#f0f0f0;entryX=0;entryY=0.5;entryDx=0;entryDy=0;exitX=1;exitY=0.5;exitDx=0;exitDy=0;" parent="1" source="3" target="36" edge="1">
                    <mxGeometry width="100" height="100" relative="1" as="geometry">
                        <mxPoint x="360" y="390" as="sourcePoint"/>
                        <mxPoint x="460" y="290" as="targetPoint"/>
                    </mxGeometry>
                </mxCell>
                <mxCell id="77" value="" style="edgeStyle=entityRelationEdgeStyle;fontSize=12;html=1;endArrow=ERmany;strokeColor=#f0f0f0;exitX=0;exitY=0.5;exitDx=0;exitDy=0;" edge="1" parent="1" source="55" target="59">
                    <mxGeometry width="100" height="100" relative="1" as="geometry">
                        <mxPoint x="130" y="190" as="sourcePoint"/>
                        <mxPoint x="330" y="305" as="targetPoint"/>
                    </mxGeometry>
                </mxCell>
                <mxCell id="80" value="" style="edgeStyle=entityRelationEdgeStyle;fontSize=12;html=1;endArrow=ERmany;exitX=0;exitY=0.5;exitDx=0;exitDy=0;entryX=1;entryY=0.5;entryDx=0;entryDy=0;" edge="1" parent="1" source="53" target="10">
                    <mxGeometry width="100" height="100" relative="1" as="geometry">
                        <mxPoint x="510" y="340" as="sourcePoint"/>
                        <mxPoint x="600" y="70" as="targetPoint"/>
                    </mxGeometry>
                </mxCell>
            </root>
        </mxGraphModel>
    </diagram>
</mxfile>